<mxfile host="app.diagrams.net" modified="2024-04-01T22:08:06.280Z" agent="Mozilla/5.0 (Macintosh; Intel Mac OS X 10_15_7) AppleWebKit/537.36 (KHTML, like Gecko) Chrome/123.0.0.0 Safari/537.36" etag="MoJ2rjEs8E0O4ze2wasg" version="24.2.1" type="device">
  <diagram name="P치gina-1" id="dFn-6tuP32dtBebV-vR7">
    <mxGraphModel dx="2261" dy="1930" grid="1" gridSize="10" guides="1" tooltips="1" connect="1" arrows="1" fold="1" page="1" pageScale="1" pageWidth="827" pageHeight="1169" math="0" shadow="0">
      <root>
        <mxCell id="0" />
        <mxCell id="1" parent="0" />
        <mxCell id="wB-eXjad7d-uVoUkpwfL-6" value="&lt;font style=&quot;font-size: 15px;&quot;&gt;Nome:&lt;/font&gt;" style="fillColor=none;strokeColor=none;html=1;fontSize=12;fontStyle=0;align=left;fontColor=#596780;fontStyle=1;fontSize=11" vertex="1" parent="1">
          <mxGeometry x="-800" y="-1070" width="240" height="20" as="geometry" />
        </mxCell>
        <mxCell id="wB-eXjad7d-uVoUkpwfL-7" value="" style="rounded=1;arcSize=9;align=left;spacingLeft=5;strokeColor=#4C9AFF;html=1;strokeWidth=2;fontSize=12" vertex="1" parent="1">
          <mxGeometry x="-800" y="-1045" width="290" height="40" as="geometry" />
        </mxCell>
        <mxCell id="wB-eXjad7d-uVoUkpwfL-8" value="Registro de Funcion치rios" style="text;html=1;align=center;verticalAlign=middle;resizable=0;points=[];autosize=1;strokeColor=none;fillColor=none;strokeWidth=4;fontSize=25;" vertex="1" parent="1">
          <mxGeometry x="-563" y="-1155" width="300" height="40" as="geometry" />
        </mxCell>
        <mxCell id="wB-eXjad7d-uVoUkpwfL-10" value="&lt;font style=&quot;font-size: 15px;&quot;&gt;Sobrenome&lt;/font&gt;" style="fillColor=none;strokeColor=none;html=1;fontSize=12;fontStyle=0;align=left;fontColor=#596780;fontStyle=1;fontSize=11" vertex="1" parent="1">
          <mxGeometry x="-800" y="-985" width="240" height="20" as="geometry" />
        </mxCell>
        <mxCell id="wB-eXjad7d-uVoUkpwfL-11" value="" style="rounded=1;arcSize=9;align=left;spacingLeft=5;strokeColor=#4C9AFF;html=1;strokeWidth=2;fontSize=12" vertex="1" parent="1">
          <mxGeometry x="-800" y="-960" width="290" height="40" as="geometry" />
        </mxCell>
        <mxCell id="wB-eXjad7d-uVoUkpwfL-12" value="&lt;font style=&quot;font-size: 15px;&quot;&gt;Email&lt;/font&gt;" style="fillColor=none;strokeColor=none;html=1;fontSize=12;fontStyle=0;align=left;fontColor=#596780;fontStyle=1;fontSize=11" vertex="1" parent="1">
          <mxGeometry x="-800" y="-905" width="240" height="20" as="geometry" />
        </mxCell>
        <mxCell id="wB-eXjad7d-uVoUkpwfL-13" value="" style="rounded=1;arcSize=9;align=left;spacingLeft=5;strokeColor=#4C9AFF;html=1;strokeWidth=2;fontSize=12" vertex="1" parent="1">
          <mxGeometry x="-800" y="-880" width="290" height="40" as="geometry" />
        </mxCell>
        <mxCell id="wB-eXjad7d-uVoUkpwfL-14" value="&lt;font style=&quot;font-size: 15px;&quot;&gt;Departamento&lt;/font&gt;" style="fillColor=none;strokeColor=none;html=1;fontSize=12;fontStyle=0;align=left;fontColor=#596780;fontStyle=1;fontSize=11" vertex="1" parent="1">
          <mxGeometry x="-800" y="-820" width="240" height="20" as="geometry" />
        </mxCell>
        <mxCell id="wB-eXjad7d-uVoUkpwfL-15" value="DESENVOLVIMENTO" style="rounded=1;arcSize=9;align=center;spacingLeft=5;strokeColor=#4C9AFF;html=1;strokeWidth=2;fontSize=12" vertex="1" parent="1">
          <mxGeometry x="-800" y="-795" width="290" height="40" as="geometry" />
        </mxCell>
        <mxCell id="wB-eXjad7d-uVoUkpwfL-16" value="Cadastrar" style="rounded=1;fillColor=#0057D8;strokeColor=none;html=1;whiteSpace=wrap;fontColor=#ffffff;align=center;verticalAlign=middle;fontStyle=0;fontSize=12;sketch=0;" vertex="1" parent="1">
          <mxGeometry x="-698" y="-720" width="86" height="33" as="geometry" />
        </mxCell>
        <mxCell id="wB-eXjad7d-uVoUkpwfL-17" value="&lt;font style=&quot;font-size: 20px;&quot;&gt;Cadastrar um Funcion치rio&lt;/font&gt;" style="text;html=1;align=center;verticalAlign=middle;resizable=0;points=[];autosize=1;strokeColor=none;fillColor=none;strokeWidth=4;fontSize=25;" vertex="1" parent="1">
          <mxGeometry x="-820" y="-1115" width="250" height="40" as="geometry" />
        </mxCell>
        <mxCell id="wB-eXjad7d-uVoUkpwfL-19" value="&lt;font style=&quot;font-size: 20px;&quot;&gt;Detalhes do Funcion치rio&lt;/font&gt;" style="text;html=1;align=center;verticalAlign=middle;resizable=0;points=[];autosize=1;strokeColor=none;fillColor=none;strokeWidth=4;fontSize=25;" vertex="1" parent="1">
          <mxGeometry x="-413" y="-1110" width="240" height="40" as="geometry" />
        </mxCell>
        <mxCell id="wB-eXjad7d-uVoUkpwfL-27" value="" style="html=1;shadow=0;dashed=0;shape=mxgraph.bootstrap.rrect;rSize=5;strokeColor=#DFDFDF;html=1;whiteSpace=wrap;fillColor=#FFFFFF;fontColor=#000000;" vertex="1" parent="1">
          <mxGeometry x="-400" y="-1005" width="60" height="150" as="geometry" />
        </mxCell>
        <mxCell id="wB-eXjad7d-uVoUkpwfL-28" value="ID" style="html=1;shadow=0;dashed=0;shape=mxgraph.bootstrap.topButton;rSize=5;strokeColor=none;fillColor=#0085FC;fontColor=#ffffff;perimeter=none;whiteSpace=wrap;resizeWidth=1;align=left;spacing=10;" vertex="1" parent="wB-eXjad7d-uVoUkpwfL-27">
          <mxGeometry width="60" height="30" relative="1" as="geometry" />
        </mxCell>
        <mxCell id="wB-eXjad7d-uVoUkpwfL-29" value="1" style="strokeColor=inherit;fillColor=inherit;gradientColor=inherit;fontColor=inherit;html=1;shadow=0;dashed=0;perimeter=none;whiteSpace=wrap;resizeWidth=1;align=left;spacing=10;" vertex="1" parent="wB-eXjad7d-uVoUkpwfL-27">
          <mxGeometry width="60" height="30" relative="1" as="geometry">
            <mxPoint y="30" as="offset" />
          </mxGeometry>
        </mxCell>
        <mxCell id="wB-eXjad7d-uVoUkpwfL-30" value="2" style="strokeColor=inherit;fillColor=inherit;gradientColor=inherit;fontColor=inherit;html=1;shadow=0;dashed=0;perimeter=none;whiteSpace=wrap;resizeWidth=1;align=left;spacing=10;" vertex="1" parent="wB-eXjad7d-uVoUkpwfL-27">
          <mxGeometry width="60" height="30" relative="1" as="geometry">
            <mxPoint y="60" as="offset" />
          </mxGeometry>
        </mxCell>
        <mxCell id="wB-eXjad7d-uVoUkpwfL-31" value="3" style="strokeColor=inherit;fillColor=inherit;gradientColor=inherit;fontColor=inherit;html=1;shadow=0;dashed=0;perimeter=none;whiteSpace=wrap;resizeWidth=1;align=left;spacing=10;" vertex="1" parent="wB-eXjad7d-uVoUkpwfL-27">
          <mxGeometry width="60" height="30" relative="1" as="geometry">
            <mxPoint y="90" as="offset" />
          </mxGeometry>
        </mxCell>
        <mxCell id="wB-eXjad7d-uVoUkpwfL-32" value="4" style="strokeColor=inherit;fillColor=inherit;gradientColor=inherit;fontColor=inherit;html=1;shadow=0;dashed=0;shape=mxgraph.bootstrap.bottomButton;rSize=5;perimeter=none;whiteSpace=wrap;resizeWidth=1;resizeHeight=0;align=left;spacing=10;" vertex="1" parent="wB-eXjad7d-uVoUkpwfL-27">
          <mxGeometry y="1" width="60" height="30" relative="1" as="geometry">
            <mxPoint y="-30" as="offset" />
          </mxGeometry>
        </mxCell>
        <mxCell id="wB-eXjad7d-uVoUkpwfL-33" value="" style="html=1;shadow=0;dashed=0;shape=mxgraph.bootstrap.rrect;rSize=5;strokeColor=#DFDFDF;html=1;whiteSpace=wrap;fillColor=#FFFFFF;fontColor=#000000;" vertex="1" parent="1">
          <mxGeometry x="-339" y="-1005" width="60" height="150" as="geometry" />
        </mxCell>
        <mxCell id="wB-eXjad7d-uVoUkpwfL-34" value="Nome" style="html=1;shadow=0;dashed=0;shape=mxgraph.bootstrap.topButton;rSize=5;strokeColor=none;fillColor=#0085FC;fontColor=#ffffff;perimeter=none;whiteSpace=wrap;resizeWidth=1;align=left;spacing=10;" vertex="1" parent="wB-eXjad7d-uVoUkpwfL-33">
          <mxGeometry width="60" height="30" relative="1" as="geometry" />
        </mxCell>
        <mxCell id="wB-eXjad7d-uVoUkpwfL-35" value="Angelo" style="strokeColor=inherit;fillColor=inherit;gradientColor=inherit;fontColor=inherit;html=1;shadow=0;dashed=0;perimeter=none;whiteSpace=wrap;resizeWidth=1;align=left;spacing=10;" vertex="1" parent="wB-eXjad7d-uVoUkpwfL-33">
          <mxGeometry width="60" height="30" relative="1" as="geometry">
            <mxPoint y="30" as="offset" />
          </mxGeometry>
        </mxCell>
        <mxCell id="wB-eXjad7d-uVoUkpwfL-36" value="Test" style="strokeColor=inherit;fillColor=inherit;gradientColor=inherit;fontColor=inherit;html=1;shadow=0;dashed=0;perimeter=none;whiteSpace=wrap;resizeWidth=1;align=left;spacing=10;" vertex="1" parent="wB-eXjad7d-uVoUkpwfL-33">
          <mxGeometry width="60" height="30" relative="1" as="geometry">
            <mxPoint y="60" as="offset" />
          </mxGeometry>
        </mxCell>
        <mxCell id="wB-eXjad7d-uVoUkpwfL-37" value="Bob" style="strokeColor=inherit;fillColor=inherit;gradientColor=inherit;fontColor=inherit;html=1;shadow=0;dashed=0;perimeter=none;whiteSpace=wrap;resizeWidth=1;align=left;spacing=10;" vertex="1" parent="wB-eXjad7d-uVoUkpwfL-33">
          <mxGeometry width="60" height="30" relative="1" as="geometry">
            <mxPoint y="90" as="offset" />
          </mxGeometry>
        </mxCell>
        <mxCell id="wB-eXjad7d-uVoUkpwfL-38" value="Ana" style="strokeColor=inherit;fillColor=inherit;gradientColor=inherit;fontColor=inherit;html=1;shadow=0;dashed=0;shape=mxgraph.bootstrap.bottomButton;rSize=5;perimeter=none;whiteSpace=wrap;resizeWidth=1;resizeHeight=0;align=left;spacing=10;" vertex="1" parent="wB-eXjad7d-uVoUkpwfL-33">
          <mxGeometry y="1" width="60" height="30" relative="1" as="geometry">
            <mxPoint y="-30" as="offset" />
          </mxGeometry>
        </mxCell>
        <mxCell id="wB-eXjad7d-uVoUkpwfL-45" value="" style="html=1;shadow=0;dashed=0;shape=mxgraph.bootstrap.rrect;rSize=5;strokeColor=#DFDFDF;html=1;whiteSpace=wrap;fillColor=#FFFFFF;fontColor=#000000;" vertex="1" parent="1">
          <mxGeometry x="-278" y="-1005" width="118" height="150" as="geometry" />
        </mxCell>
        <mxCell id="wB-eXjad7d-uVoUkpwfL-46" value="Email" style="html=1;shadow=0;dashed=0;shape=mxgraph.bootstrap.topButton;rSize=5;strokeColor=none;fillColor=#0085FC;fontColor=#ffffff;perimeter=none;whiteSpace=wrap;resizeWidth=1;align=left;spacing=10;" vertex="1" parent="wB-eXjad7d-uVoUkpwfL-45">
          <mxGeometry width="118" height="30" relative="1" as="geometry" />
        </mxCell>
        <mxCell id="wB-eXjad7d-uVoUkpwfL-47" value="angelo@email.com" style="strokeColor=inherit;fillColor=inherit;gradientColor=inherit;fontColor=inherit;html=1;shadow=0;dashed=0;perimeter=none;whiteSpace=wrap;resizeWidth=1;align=left;spacing=10;" vertex="1" parent="wB-eXjad7d-uVoUkpwfL-45">
          <mxGeometry width="118" height="30" relative="1" as="geometry">
            <mxPoint y="30" as="offset" />
          </mxGeometry>
        </mxCell>
        <mxCell id="wB-eXjad7d-uVoUkpwfL-48" value="test@test.com" style="strokeColor=inherit;fillColor=inherit;gradientColor=inherit;fontColor=inherit;html=1;shadow=0;dashed=0;perimeter=none;whiteSpace=wrap;resizeWidth=1;align=left;spacing=10;" vertex="1" parent="wB-eXjad7d-uVoUkpwfL-45">
          <mxGeometry width="118" height="30" relative="1" as="geometry">
            <mxPoint y="60" as="offset" />
          </mxGeometry>
        </mxCell>
        <mxCell id="wB-eXjad7d-uVoUkpwfL-49" value="bob@email.com" style="strokeColor=inherit;fillColor=inherit;gradientColor=inherit;fontColor=inherit;html=1;shadow=0;dashed=0;perimeter=none;whiteSpace=wrap;resizeWidth=1;align=left;spacing=10;" vertex="1" parent="wB-eXjad7d-uVoUkpwfL-45">
          <mxGeometry width="118" height="30" relative="1" as="geometry">
            <mxPoint y="90" as="offset" />
          </mxGeometry>
        </mxCell>
        <mxCell id="wB-eXjad7d-uVoUkpwfL-50" value="ana@email.com" style="strokeColor=inherit;fillColor=inherit;gradientColor=inherit;fontColor=inherit;html=1;shadow=0;dashed=0;shape=mxgraph.bootstrap.bottomButton;rSize=5;perimeter=none;whiteSpace=wrap;resizeWidth=1;resizeHeight=0;align=left;spacing=10;" vertex="1" parent="wB-eXjad7d-uVoUkpwfL-45">
          <mxGeometry y="1" width="118" height="30" relative="1" as="geometry">
            <mxPoint y="-30" as="offset" />
          </mxGeometry>
        </mxCell>
        <mxCell id="wB-eXjad7d-uVoUkpwfL-51" value="" style="html=1;shadow=0;dashed=0;shape=mxgraph.bootstrap.rrect;rSize=5;strokeColor=#DFDFDF;html=1;whiteSpace=wrap;fillColor=#FFFFFF;fontColor=#000000;" vertex="1" parent="1">
          <mxGeometry x="-160" y="-1005" width="140" height="150" as="geometry" />
        </mxCell>
        <mxCell id="wB-eXjad7d-uVoUkpwfL-52" value="Departamento" style="html=1;shadow=0;dashed=0;shape=mxgraph.bootstrap.topButton;rSize=5;strokeColor=none;fillColor=#0085FC;fontColor=#ffffff;perimeter=none;whiteSpace=wrap;resizeWidth=1;align=left;spacing=10;" vertex="1" parent="wB-eXjad7d-uVoUkpwfL-51">
          <mxGeometry width="140" height="30" relative="1" as="geometry" />
        </mxCell>
        <mxCell id="wB-eXjad7d-uVoUkpwfL-53" value="DESENVOLVIMENTO" style="strokeColor=inherit;fillColor=inherit;gradientColor=inherit;fontColor=inherit;html=1;shadow=0;dashed=0;perimeter=none;whiteSpace=wrap;resizeWidth=1;align=left;spacing=10;" vertex="1" parent="wB-eXjad7d-uVoUkpwfL-51">
          <mxGeometry width="140" height="30" relative="1" as="geometry">
            <mxPoint y="30" as="offset" />
          </mxGeometry>
        </mxCell>
        <mxCell id="wB-eXjad7d-uVoUkpwfL-54" value="QUALIDADE" style="strokeColor=inherit;fillColor=inherit;gradientColor=inherit;fontColor=inherit;html=1;shadow=0;dashed=0;perimeter=none;whiteSpace=wrap;resizeWidth=1;align=left;spacing=10;" vertex="1" parent="wB-eXjad7d-uVoUkpwfL-51">
          <mxGeometry width="140" height="30" relative="1" as="geometry">
            <mxPoint y="60" as="offset" />
          </mxGeometry>
        </mxCell>
        <mxCell id="wB-eXjad7d-uVoUkpwfL-55" value="ADMINISTRATIVO" style="strokeColor=inherit;fillColor=inherit;gradientColor=inherit;fontColor=inherit;html=1;shadow=0;dashed=0;perimeter=none;whiteSpace=wrap;resizeWidth=1;align=left;spacing=10;" vertex="1" parent="wB-eXjad7d-uVoUkpwfL-51">
          <mxGeometry width="140" height="30" relative="1" as="geometry">
            <mxPoint y="90" as="offset" />
          </mxGeometry>
        </mxCell>
        <mxCell id="wB-eXjad7d-uVoUkpwfL-56" value="QUALIDADE" style="strokeColor=inherit;fillColor=inherit;gradientColor=inherit;fontColor=inherit;html=1;shadow=0;dashed=0;shape=mxgraph.bootstrap.bottomButton;rSize=5;perimeter=none;whiteSpace=wrap;resizeWidth=1;resizeHeight=0;align=left;spacing=10;" vertex="1" parent="wB-eXjad7d-uVoUkpwfL-51">
          <mxGeometry y="1" width="140" height="30" relative="1" as="geometry">
            <mxPoint y="-30" as="offset" />
          </mxGeometry>
        </mxCell>
        <mxCell id="wB-eXjad7d-uVoUkpwfL-58" value="&lt;font style=&quot;font-size: 10px;&quot;&gt;Info&lt;/font&gt;" style="html=1;shadow=0;dashed=0;shape=mxgraph.bootstrap.rrect;rSize=5;strokeColor=none;strokeWidth=1;fillColor=#33A64C;fontColor=#FFFFFF;whiteSpace=wrap;align=center;verticalAlign=middle;spacingLeft=0;fontStyle=0;fontSize=16;spacing=5;" vertex="1" parent="1">
          <mxGeometry x="-10" y="-970" width="40" height="20" as="geometry" />
        </mxCell>
        <mxCell id="wB-eXjad7d-uVoUkpwfL-59" value="&lt;font style=&quot;font-size: 10px;&quot;&gt;Deletar&lt;/font&gt;" style="html=1;shadow=0;dashed=0;shape=mxgraph.bootstrap.rrect;rSize=5;strokeColor=none;strokeWidth=1;fillColor=#DB2843;fontColor=#FFFFFF;whiteSpace=wrap;align=center;verticalAlign=middle;spacingLeft=0;fontStyle=0;fontSize=16;spacing=5;" vertex="1" parent="1">
          <mxGeometry x="40" y="-970" width="50" height="20" as="geometry" />
        </mxCell>
        <mxCell id="wB-eXjad7d-uVoUkpwfL-60" value="&lt;font style=&quot;font-size: 10px;&quot;&gt;Info&lt;/font&gt;" style="html=1;shadow=0;dashed=0;shape=mxgraph.bootstrap.rrect;rSize=5;strokeColor=none;strokeWidth=1;fillColor=#33A64C;fontColor=#FFFFFF;whiteSpace=wrap;align=center;verticalAlign=middle;spacingLeft=0;fontStyle=0;fontSize=16;spacing=5;" vertex="1" parent="1">
          <mxGeometry x="-10" y="-940" width="40" height="20" as="geometry" />
        </mxCell>
        <mxCell id="wB-eXjad7d-uVoUkpwfL-61" value="&lt;font style=&quot;font-size: 10px;&quot;&gt;Deletar&lt;/font&gt;" style="html=1;shadow=0;dashed=0;shape=mxgraph.bootstrap.rrect;rSize=5;strokeColor=none;strokeWidth=1;fillColor=#DB2843;fontColor=#FFFFFF;whiteSpace=wrap;align=center;verticalAlign=middle;spacingLeft=0;fontStyle=0;fontSize=16;spacing=5;" vertex="1" parent="1">
          <mxGeometry x="40" y="-940" width="50" height="20" as="geometry" />
        </mxCell>
        <mxCell id="wB-eXjad7d-uVoUkpwfL-62" value="&lt;font style=&quot;font-size: 10px;&quot;&gt;Info&lt;/font&gt;" style="html=1;shadow=0;dashed=0;shape=mxgraph.bootstrap.rrect;rSize=5;strokeColor=none;strokeWidth=1;fillColor=#33A64C;fontColor=#FFFFFF;whiteSpace=wrap;align=center;verticalAlign=middle;spacingLeft=0;fontStyle=0;fontSize=16;spacing=5;" vertex="1" parent="1">
          <mxGeometry x="-10" y="-910" width="40" height="20" as="geometry" />
        </mxCell>
        <mxCell id="wB-eXjad7d-uVoUkpwfL-63" value="&lt;font style=&quot;font-size: 10px;&quot;&gt;Deletar&lt;/font&gt;" style="html=1;shadow=0;dashed=0;shape=mxgraph.bootstrap.rrect;rSize=5;strokeColor=none;strokeWidth=1;fillColor=#DB2843;fontColor=#FFFFFF;whiteSpace=wrap;align=center;verticalAlign=middle;spacingLeft=0;fontStyle=0;fontSize=16;spacing=5;" vertex="1" parent="1">
          <mxGeometry x="40" y="-910" width="50" height="20" as="geometry" />
        </mxCell>
        <mxCell id="wB-eXjad7d-uVoUkpwfL-64" value="&lt;font style=&quot;font-size: 10px;&quot;&gt;Info&lt;/font&gt;" style="html=1;shadow=0;dashed=0;shape=mxgraph.bootstrap.rrect;rSize=5;strokeColor=none;strokeWidth=1;fillColor=#33A64C;fontColor=#FFFFFF;whiteSpace=wrap;align=center;verticalAlign=middle;spacingLeft=0;fontStyle=0;fontSize=16;spacing=5;" vertex="1" parent="1">
          <mxGeometry x="-10" y="-875" width="40" height="20" as="geometry" />
        </mxCell>
        <mxCell id="wB-eXjad7d-uVoUkpwfL-65" value="&lt;font style=&quot;font-size: 10px;&quot;&gt;Deletar&lt;/font&gt;" style="html=1;shadow=0;dashed=0;shape=mxgraph.bootstrap.rrect;rSize=5;strokeColor=none;strokeWidth=1;fillColor=#DB2843;fontColor=#FFFFFF;whiteSpace=wrap;align=center;verticalAlign=middle;spacingLeft=0;fontStyle=0;fontSize=16;spacing=5;" vertex="1" parent="1">
          <mxGeometry x="40" y="-875" width="50" height="20" as="geometry" />
        </mxCell>
        <mxCell id="wB-eXjad7d-uVoUkpwfL-66" value="&lt;font style=&quot;font-size: 15px;&quot;&gt;ID&lt;/font&gt;" style="fillColor=none;strokeColor=none;html=1;fontSize=12;fontStyle=0;align=left;fontColor=#596780;fontStyle=1;fontSize=11" vertex="1" parent="1">
          <mxGeometry x="-400" y="-1060" width="240" height="20" as="geometry" />
        </mxCell>
        <mxCell id="wB-eXjad7d-uVoUkpwfL-67" value="" style="rounded=1;arcSize=9;align=left;spacingLeft=5;strokeColor=#4C9AFF;html=1;strokeWidth=2;fontSize=12" vertex="1" parent="1">
          <mxGeometry x="-400" y="-1040" width="40" height="30" as="geometry" />
        </mxCell>
        <mxCell id="wB-eXjad7d-uVoUkpwfL-69" value="&lt;font style=&quot;font-size: 15px;&quot;&gt;Nome&lt;/font&gt;" style="fillColor=none;strokeColor=none;html=1;fontSize=12;fontStyle=0;align=left;fontColor=#596780;fontStyle=1;fontSize=11" vertex="1" parent="1">
          <mxGeometry x="-339" y="-1060" width="240" height="20" as="geometry" />
        </mxCell>
        <mxCell id="wB-eXjad7d-uVoUkpwfL-70" value="" style="rounded=1;arcSize=9;align=left;spacingLeft=5;strokeColor=#4C9AFF;html=1;strokeWidth=2;fontSize=12" vertex="1" parent="1">
          <mxGeometry x="-339" y="-1040" width="49" height="30" as="geometry" />
        </mxCell>
        <mxCell id="wB-eXjad7d-uVoUkpwfL-71" value="&lt;font style=&quot;font-size: 15px;&quot;&gt;Email&lt;/font&gt;" style="fillColor=none;strokeColor=none;html=1;fontSize=12;fontStyle=0;align=left;fontColor=#596780;fontStyle=1;fontSize=11" vertex="1" parent="1">
          <mxGeometry x="-278" y="-1060" width="240" height="20" as="geometry" />
        </mxCell>
        <mxCell id="wB-eXjad7d-uVoUkpwfL-72" value="" style="rounded=1;arcSize=9;align=left;spacingLeft=5;strokeColor=#4C9AFF;html=1;strokeWidth=2;fontSize=12" vertex="1" parent="1">
          <mxGeometry x="-278" y="-1040" width="108" height="30" as="geometry" />
        </mxCell>
        <mxCell id="wB-eXjad7d-uVoUkpwfL-73" value="&lt;font style=&quot;font-size: 15px;&quot;&gt;Departamento&lt;/font&gt;" style="fillColor=none;strokeColor=none;html=1;fontSize=12;fontStyle=0;align=left;fontColor=#596780;fontStyle=1;fontSize=11" vertex="1" parent="1">
          <mxGeometry x="-157" y="-1060" width="240" height="20" as="geometry" />
        </mxCell>
        <mxCell id="wB-eXjad7d-uVoUkpwfL-74" value="" style="rounded=1;arcSize=9;align=left;spacingLeft=5;strokeColor=#4C9AFF;html=1;strokeWidth=2;fontSize=12" vertex="1" parent="1">
          <mxGeometry x="-157" y="-1040" width="118" height="30" as="geometry" />
        </mxCell>
      </root>
    </mxGraphModel>
  </diagram>
</mxfile>
